<?xml version="1.0" standalone="no"?>
<!DOCTYPE svg PUBLIC "-//W3C//DTD SVG 20010904//EN" "http://www.w3.org/TR/2001/REC-SVG-20010904/DTD/svg10.dtd">
<svg id="logo" version="1.0" xmlns="http://www.w3.org/2000/svg" width="410.000000pt" height="550.000000pt" viewBox="0 0 410.000000 550.000000" preserveAspectRatio="xMidYMid meet">

        <g transform="translate(0.000000,550.000000) scale(0.100000,-0.100000)" stroke="none">
                <path d="M3478 5454 c-101 -24 -186 -76 -353 -215 -170 -142 -294 -274 -379
-402 -43 -64 -81 -117 -85 -117 -4 0 -11 4 -17 10 -18 18 -159 71 -227 86 -38
8 -112 14 -165 14 -271 -1 -513 -139 -901 -515 -192 -186 -305 -342 -416 -570
-186 -384 -279 -792 -292 -1280 -18 -725 163 -1342 517 -1763 l61 -72 -61 -97
c-87 -139 -98 -150 -165 -174 -93 -33 -191 -29 -289 10 -42 17 -82 31 -88 31
-14 0 -172 -129 -263 -214 l-70 -66 30 -18 c103 -63 262 -76 373 -30 133 55
296 177 500 373 l117 112 85 -59 c154 -105 301 -149 480 -143 224 7 390 84
650 301 333 277 490 463 635 749 332 657 406 1546 191 2300 -59 207 -175 470
-267 607 -55 81 -189 238 -237 277 l-37 30 62 123 c65 128 176 326 212 377 45
63 241 71 381 17 29 -12 351 267 331 287 -17 17 -145 47 -201 46 -30 0 -81 -7
-112 -15z m-1363 -937 c90 -25 203 -78 274 -128 39 -27 71 -54 71 -59 0 -5
-27 -71 -61 -147 -153 -347 -312 -791 -459 -1288 -98 -332 -131 -463 -274
-1061 -30 -127 -73 -296 -96 -375 -41 -140 -128 -389 -136 -389 -2 0 -32 42
-66 93 -173 261 -296 611 -361 1027 -29 189 -32 717 -4 915 58 408 166 750
330 1042 65 115 161 249 201 281 36 28 162 76 251 96 82 18 251 15 330 -7z
m562 -410 c176 -247 292 -510 369 -835 101 -429 110 -948 23 -1400 -77 -402
-230 -775 -425 -1036 -51 -68 -67 -81 -129 -111 -224 -108 -468 -106 -687 5
-85 43 -121 68 -209 142 l-57 48 74 143 c156 305 239 535 340 947 36 146 96
392 135 548 87 356 193 725 302 1052 94 283 198 570 207 570 3 0 28 -33 57
-73z" />
                <path d="M3683 5022 c-33 -18 -174 -135 -168 -140 1 -2 18 6 36 17 80 49 187
12 233 -81 23 -47 26 -63 26 -166 l0 -114 44 -51 44 -52 -44 -50 -44 -49 2
-116 c2 -102 0 -120 -20 -157 -12 -23 -38 -54 -59 -70 -50 -38 -140 -40 -193
-4 -35 24 -35 25 -15 2 40 -46 175 -140 211 -147 74 -14 161 35 195 111 21 46
25 142 9 226 -16 82 -5 116 56 175 52 51 52 52 33 70 -19 17 -19 18 1 39 l21
22 -40 26 c-23 15 -50 46 -62 69 -19 37 -21 50 -13 113 16 133 10 199 -22 252
-52 84 -153 117 -231 75z" />
                <path d="M302 1652 c-39 -12 -93 -63 -113 -106 -21 -47 -25 -142 -9 -227 16
-82 5 -116 -56 -175 -52 -51 -52 -52 -33 -70 19 -17 19 -18 -1 -39 l-20 -21
43 -31 c65 -45 81 -88 71 -182 -16 -136 -10 -196 23 -249 51 -82 149 -115 226
-76 37 19 179 135 173 141 -2 2 -19 -5 -37 -16 -82 -50 -188 -12 -235 85 -26
53 -27 59 -20 162 l6 107 -46 53 -46 53 47 59 46 60 -11 74 c-18 118 7 200 77
253 49 38 140 40 193 5 28 -19 25 -14 -15 23 -109 102 -192 139 -263 117z" />
        </g>
</svg>
